<svg xmlns="http://www.w3.org/2000/svg" width="812.4998779296875" height="636.4199829101562" viewBox="-389.6613464355469 -245.5760498046875 812.4998779296875 636.4199829101562"><title>Neo4j Graph Visualization</title><desc>Created using Neo4j (http://www.neo4j.com/)</desc><g class="layer relationships"><g class="relationship" transform="translate(261.8859428221085 10.676941548012998) rotate(210.51285365974388)"><path class="outline" fill="#A5ABB6" stroke="none" d="M 25 0.5 L 29.36526246032495 0.5 L 29.36526246032495 -0.5 L 25 -0.5 Z M 72.69729371032494 0.5 L 77.0625561706499 0.5 L 77.0625561706499 3.5 L 84.0625561706499 0 L 77.0625561706499 -3.5 L 77.0625561706499 -0.5 L 72.69729371032494 -0.5 Z"/><text text-anchor="middle" pointer-events="none" font-size="8px" fill="#000000" x="51.03127808532495" y="3" transform="rotate(180 51.03127808532495 0)" font-family="sans-serif">HIGHWAY</text></g><g class="relationship" transform="translate(261.8859428221085 10.676941548012998) rotate(367.8223894455167)"><path class="outline" fill="#A5ABB6" stroke="none" d="M 24.018736134675446,-6.953439040707552 L 24.277555179777966,-5.987513214418485 A 157.71865915805395 157.71865915805395 0 0 1 43.07514225784371,-9.816488855432937 L 42.935507506967454,-10.80669193376977 A 158.71865915805395 158.71865915805395 0 0 0 24.018736134675446,-6.953439040707552 Z M 83.18499449103899,-11.327731858823341 L 83.07103910199356,-10.334245991129421 A 157.71865915805395 157.71865915805395 0 0 1 101.96144458115072,-6.993151073295474 L 101.26026001288172,-4.076245143852185 L 108.88442251122989,-5.843204735575018 L 102.89635733884272,-10.882358979219859 L 102.19517277057372,-7.9654530497765705 A 158.71865915805395 158.71865915805395 0 0 0 83.18499449103899,-11.327731858823341"/><text text-anchor="middle" pointer-events="none" font-size="8px" fill="#000000" x="63.050138438454056" y="-8.848390755397617" font-family="sans-serif">BUSLINE</text></g><g class="relationship" transform="translate(261.8859428221085 10.676941548012998) rotate(526.1806552518797)"><path class="outline" fill="#A5ABB6" stroke="none" d="M 21.40063509461097,-12.933012701892217 L 21.90063509461097,-12.06698729810778 A 98.47891341820973 98.47891341820973 0 0 1 47.534814862731864,-22.389734118095262 L 47.295116067105035,-23.360581421936104 A 99.47891341820973 99.47891341820973 0 0 0 21.40063509461097,-12.933012701892217 Z M 90.48749661841786,-24.361109839673063 L 90.29300912202388,-23.38020484236374 A 98.47891341820973 98.47891341820973 0 0 1 116.37767877419208,-14.25549753576177 L 114.99958922993504,-11.590751917882 L 122.82510013995437,-11.484079535475313 L 118.21513149986812,-17.808491692934794 L 116.83704195561108,-15.143746075055027 A 99.47891341820973 99.47891341820973 0 0 0 90.48749661841786,-24.361109839673063"/><text text-anchor="middle" pointer-events="none" font-size="8px" fill="#000000" x="68.84791305937186" y="-22.734114971592575" transform="rotate(180 68.84791305937186 -25.734114971592575)" font-family="sans-serif">HIGHWAY</text></g><g class="relationship" transform="translate(261.8859428221085 10.676941548012998) rotate(473.1566413621033)"><path class="outline" fill="#A5ABB6" stroke="none" d="M 25 0.5 L 26.265928100212648 0.5 L 26.265928100212648 -0.5 L 25 -0.5 Z M 56.71514685021265 0.5 L 57.981074950425295 0.5 L 57.981074950425295 3.5 L 64.9810749504253 0 L 57.981074950425295 -3.5 L 57.981074950425295 -0.5 L 56.71514685021265 -0.5 Z"/><text text-anchor="middle" pointer-events="none" font-size="8px" fill="#000000" x="41.49053747521265" y="3" transform="rotate(180 41.49053747521265 0)" font-family="sans-serif">BUS…</text></g><g class="relationship" transform="translate(261.8859428221085 10.676941548012998) rotate(330.26450469023064)"><path class="outline" fill="#A5ABB6" stroke="none" d="M 25 0.5 L 40.70914332973645 0.5 L 40.70914332973645 -0.5 L 25 -0.5 Z M 80.94351832973645 0.5 L 96.6526616594729 0.5 L 96.6526616594729 3.5 L 103.6526616594729 0 L 96.6526616594729 -3.5 L 96.6526616594729 -0.5 L 80.94351832973645 -0.5 Z"/><text text-anchor="middle" pointer-events="none" font-size="8px" fill="#000000" x="60.82633082973645" y="3" font-family="sans-serif">BUSLINE</text></g><g class="relationship" transform="translate(261.8859428221085 10.676941548012998) rotate(526.1806552518797)"><path class="outline" fill="#A5ABB6" stroke="none" d="M 25 0.5 L 48.898469311142904 0.5 L 48.898469311142904 -0.5 L 25 -0.5 Z M 89.1328443111429 0.5 L 113.03131362228581 0.5 L 113.03131362228581 3.5 L 120.03131362228581 0 L 113.03131362228581 -3.5 L 113.03131362228581 -0.5 L 89.1328443111429 -0.5 Z"/><text text-anchor="middle" pointer-events="none" font-size="8px" fill="#000000" x="69.0156568111429" y="3" transform="rotate(180 69.0156568111429 0)" font-family="sans-serif">BUSLINE</text></g><g class="relationship" transform="translate(261.8859428221085 10.676941548012998) rotate(367.8223894455167)"><path class="outline" fill="#A5ABB6" stroke="none" d="M 24.018736134675446,6.953439040707552 L 24.277555179777966,5.987513214418485 A 157.71865915805395 157.71865915805395 0 0 0 42.932488448309456,9.796305890001094 L 42.791949214664356,10.7863810001854 A 158.71865915805395 158.71865915805395 0 0 1 24.018736134675446,6.953439040707552 Z M 83.32903044887736,11.31114390651814 L 83.2141675675522,10.31776255049536 A 157.71865915805395 157.71865915805395 0 0 0 101.96144458115072,6.993151073295474 L 101.26026001288172,4.076245143852185 L 108.88442251122989,5.843204735575018 L 102.89635733884272,10.882358979219859 L 102.19517277057372,7.9654530497765705 A 158.71865915805395 158.71865915805395 0 0 1 83.32903044887736,11.31114390651814"/><text text-anchor="middle" pointer-events="none" font-size="8px" fill="#000000" x="63.050138438454134" y="14.848390755397617" font-family="sans-serif">RAILWAY</text></g><g class="relationship" transform="translate(261.8859428221085 10.676941548012998) rotate(526.1806552518797)"><path class="outline" fill="#A5ABB6" stroke="none" d="M 21.40063509461097,12.933012701892217 L 21.90063509461097,12.06698729810778 A 98.47891341820973 98.47891341820973 0 0 0 48.893615846672745,22.71500821543259 L 48.66771493870304,23.68915850146574 A 99.47891341820973 99.47891341820973 0 0 1 21.40063509461097,12.933012701892217 Z M 89.10115554824449,24.625777549556048 L 88.9206040813319,23.64221201142668 A 98.47891341820973 98.47891341820973 0 0 0 116.37767877419208,14.25549753576177 L 114.99958922993504,11.590751917882 L 122.82510013995437,11.484079535475313 L 118.21513149986812,17.808491692934794 L 116.83704195561108,15.143746075055027 A 99.47891341820973 99.47891341820973 0 0 1 89.10115554824449,24.625777549556048"/><text text-anchor="middle" pointer-events="none" font-size="8px" fill="#000000" x="68.8479130593719" y="28.734114971592575" transform="rotate(180 68.8479130593719 25.734114971592575)" font-family="sans-serif">RAILWAY</text></g><g class="relationship" transform="translate(13.784340997425238 -24.51377627825616) rotate(510.4524356315362)"><path class="outline" fill="#A5ABB6" stroke="none" d="M 24.018736134675446,-6.953439040707552 L 24.277555179777966,-5.987513214418485 A 156.78752710166742 156.78752710166742 0 0 1 49.2958794586737,-10.555773707956519 L 49.196628746214586,-11.550836166336097 A 157.78752710166742 157.78752710166742 0 0 0 24.018736134675446,-6.953439040707552 Z M 76.43431630073222,-11.904626546465067 L 76.36094444881736,-10.907321893238873 A 156.78752710166742 156.78752710166742 0 0 1 101.48948253125513,-6.990419098902736 L 100.78855312736287,-4.073451843214178 L 108.41256102851048,-5.841078365768878 L 102.42405506977816,-10.879708773154146 L 101.7231256658859,-7.962741517465588 A 157.78752710166742 157.78752710166742 0 0 0 76.43431630073222,-11.904626546465067"/><text text-anchor="middle" pointer-events="none" font-size="8px" fill="#000000" x="62.81431753292472" y="-8.816652009590825" transform="rotate(180 62.81431753292472 -11.816652009590825)" font-family="sans-serif">BOAT</text></g><g class="relationship" transform="translate(13.784340997425238 -24.51377627825616) rotate(464.9262093339623)"><path class="outline" fill="#A5ABB6" stroke="none" d="M 21.40063509461097,-12.933012701892217 L 21.90063509461097,-12.06698729810778 A 70.61727492245532 70.61727492245532 0 0 1 35.5914290026321,-18.13762455682931 L 35.28530215793376,-19.08961528942865 A 71.61727492245532 71.61727492245532 0 0 0 21.40063509461097,-12.933012701892217 Z M 75.24841092745366,-20.21881138789439 L 74.99652842576468,-19.251053564189036 A 70.61727492245532 70.61727492245532 0 0 1 89.00826804350162,-13.963178050939142 L 87.65736648906264,-11.28454687247982 L 95.48355771897985,-11.257512953658097 L 90.80947011608691,-17.534686288884902 L 89.45856856164794,-14.856055110425583 A 71.61727492245532 71.61727492245532 0 0 0 75.24841092745366,-20.21881138789439"/><text text-anchor="middle" pointer-events="none" font-size="8px" fill="#000000" x="55.20058721680304" y="-18.999535185106268" transform="rotate(180 55.20058721680304 -21.999535185106268)" font-family="sans-serif">BUSLINE</text></g><g class="relationship" transform="translate(13.784340997425238 -24.51377627825616) rotate(318.1878112685326)"><path class="outline" fill="#A5ABB6" stroke="none" d="M 25 0.5 L 26.090557637056413 0.5 L 26.090557637056413 -0.5 L 25 -0.5 Z M 69.4225888870564 0.5 L 70.51314652411283 0.5 L 70.51314652411283 3.5 L 77.51314652411283 0 L 70.51314652411283 -3.5 L 70.51314652411283 -0.5 L 69.4225888870564 -0.5 Z"/><text text-anchor="middle" pointer-events="none" font-size="8px" fill="#000000" x="47.75657326205641" y="3" font-family="sans-serif">HIGHWAY</text></g><g class="relationship" transform="translate(13.784340997425238 -24.51377627825616) rotate(464.9262093339623)"><path class="outline" fill="#A5ABB6" stroke="none" d="M 25 0.5 L 33.73672647807044 0.5 L 33.73672647807044 -0.5 L 25 -0.5 Z M 77.06875772807044 0.5 L 85.80548420614087 0.5 L 85.80548420614087 3.5 L 92.80548420614087 0 L 85.80548420614087 -3.5 L 85.80548420614087 -0.5 L 77.06875772807044 -0.5 Z"/><text text-anchor="middle" pointer-events="none" font-size="8px" fill="#000000" x="55.40274210307044" y="3" transform="rotate(180 55.40274210307044 0)" font-family="sans-serif">HIGHWAY</text></g><g class="relationship" transform="translate(13.784340997425238 -24.51377627825616) rotate(352.53999651509616)"><path class="outline" fill="#A5ABB6" stroke="none" d="M 24.018736134675446,-6.953439040707552 L 24.277555179777966,-5.987513214418485 A 201.5629693313549 201.5629693313549 0 0 1 54.029736676568064,-11.605257823401587 L 53.91852500992145,-12.599054565799975 A 202.5629693313549 202.5629693313549 0 0 0 24.018736134675446,-6.953439040707552 Z M 94.47166382983855,-13.05196748548056 L 94.38267533673346,-12.055934831349731 A 201.5629693313549 201.5629693313549 0 0 1 124.2529021953838,-7.104076016474105 L 123.54135763056874,-4.189679967155795 L 131.17175040459568,-5.92953804012538 L 125.20162828180386,-10.989937415565183 L 124.4900837169888,-8.075541366246874 A 202.5629693313549 202.5629693313549 0 0 0 94.47166382983855,-13.05196748548056"/><text text-anchor="middle" pointer-events="none" font-size="8px" fill="#000000" x="74.18931485998884" y="-10.343004089758239" font-family="sans-serif">RAILWAY</text></g><g class="relationship" transform="translate(13.784340997425238 -24.51377627825616) rotate(464.9262093339623)"><path class="outline" fill="#A5ABB6" stroke="none" d="M 21.40063509461097,12.933012701892217 L 21.90063509461097,12.06698729810778 A 70.61727492245532 70.61727492245532 0 0 0 35.45484869211855,18.09355193038577 L 35.14678775536323,19.044918557530863 A 71.61727492245532 71.61727492245532 0 0 1 21.40063509461097,12.933012701892217 Z M 75.38922821012243,20.18200744158966 L 75.13537946100472,19.21476351549275 A 70.61727492245532 70.61727492245532 0 0 0 89.00826804350162,13.963178050939142 L 87.65736648906264,11.28454687247982 L 95.48355771897985,11.257512953658097 L 90.80947011608691,17.534686288884902 L 89.45856856164794,14.856055110425583 A 71.61727492245532 71.61727492245532 0 0 1 75.38922821012243,20.18200744158966"/><text text-anchor="middle" pointer-events="none" font-size="8px" fill="#000000" x="55.20058721680304" y="24.999535185106268" transform="rotate(180 55.20058721680304 21.999535185106268)" font-family="sans-serif">RAILWAY</text></g><g class="relationship" transform="translate(-16.559385923361692 89.31675717213236) rotate(498.4581341488656)"><path class="outline" fill="#A5ABB6" stroke="none" d="M 24.018736134675446,6.953439040707552 L 24.277555179777966,5.987513214418485 A 156.45978981621315 156.45978981621315 0 0 0 41.23051702846213,9.53749564253468 L 41.08005145787595,10.526110892299812 A 157.45978981621315 157.45978981621315 0 0 1 24.018736134675446,6.953439040707552 Z M 84.40854110225591,11.089574865698012 L 84.28383489917877,10.09738115330407 A 156.45978981621315 156.45978981621315 0 0 0 101.32337933289767,6.9894531981881665 L 100.62254014350182,4.072464265983079 L 108.24649337294218,5.840326578298712 L 102.25783158542546,10.878771774461617 L 101.55699239602961,7.96178284225653 A 157.45978981621315 157.45978981621315 0 0 1 84.40854110225591,11.089574865698012"/><text text-anchor="middle" pointer-events="none" font-size="8px" fill="#000000" x="62.73132253014021" y="14.805480733137614" transform="rotate(180 62.73132253014021 11.805480733137614)" font-family="sans-serif">HIGHWAY</text></g><g class="relationship" transform="translate(-16.559385923361692 89.31675717213236) rotate(498.4581341488656)"><path class="outline" fill="#A5ABB6" stroke="none" d="M 24.018736134675446,-6.953439040707552 L 24.277555179777966,-5.987513214418485 A 156.45978981621315 156.45978981621315 0 0 1 42.615327582668385,-9.741927388405145 L 42.4737129159204,-10.73184924701917 A 157.45978981621315 157.45978981621315 0 0 0 24.018736134675446,-6.953439040707552 Z M 83.01000081489823,-11.259002121117419 L 82.8941765002638,-10.265732405411029 A 156.45978981621315 156.45978981621315 0 0 1 101.32337933289767,-6.9894531981881665 L 100.62254014350182,-4.072464265983079 L 108.24649337294218,-5.840326578298712 L 102.25783158542546,-10.878771774461617 L 101.55699239602961,-7.96178284225653 A 157.45978981621315 157.45978981621315 0 0 0 83.01000081489823,-11.259002121117419"/><text text-anchor="middle" pointer-events="none" font-size="8px" fill="#000000" x="62.73132253014017" y="-8.805480733137614" transform="rotate(180 62.73132253014017 -11.805480733137614)" font-family="sans-serif">RAILWAY</text></g><g class="relationship" transform="translate(167.9268843936563 -44.6975697158787) rotate(270.34914186181004)"><path class="outline" fill="#A5ABB6" stroke="none" d="M 25 0.5 L 39.26902458015621 0.5 L 39.26902458015621 -0.5 L 25 -0.5 Z M 82.60105583015621 0.5 L 96.87008041031243 0.5 L 96.87008041031243 3.5 L 103.87008041031243 0 L 96.87008041031243 -3.5 L 96.87008041031243 -0.5 L 82.60105583015621 -0.5 Z"/><text text-anchor="middle" pointer-events="none" font-size="8px" fill="#000000" x="60.93504020515621" y="3" font-family="sans-serif">HIGHWAY</text></g><g class="relationship" transform="translate(167.9268843936563 -44.6975697158787) rotate(532.5399965150962)"><path class="outline" fill="#A5ABB6" stroke="none" d="M 24.018736134675446,-6.953439040707552 L 24.277555179777966,-5.987513214418485 A 201.5629693313549 201.5629693313549 0 0 1 52.6381569113688,-11.444633830959049 L 52.52004129917199,-12.43763368098692 A 202.5629693313549 202.5629693313549 0 0 0 24.018736134675446,-6.953439040707552 Z M 95.87340388100148,-12.921820567533501 L 95.77749536665169,-11.926430414440148 A 201.5629693313549 201.5629693313549 0 0 1 124.2529021953838,-7.104076016474105 L 123.54135763056874,-4.189679967155795 L 131.17175040459568,-5.92953804012538 L 125.20162828180386,-10.989937415565183 L 124.4900837169888,-8.075541366246874 A 202.5629693313549 202.5629693313549 0 0 0 95.87340388100148,-12.921820567533501"/><text text-anchor="middle" pointer-events="none" font-size="8px" fill="#000000" x="74.18931485998884" y="-10.343004089758239" transform="rotate(180 74.18931485998884 -13.343004089758239)" font-family="sans-serif">HIGHWAY</text></g><g class="relationship" transform="translate(167.9268843936563 -44.6975697158787) rotate(313.2559629139383)"><path class="outline" fill="#A5ABB6" stroke="none" d="M 25 0.5 L 44.0282277641366 0.5 L 44.0282277641366 -0.5 L 25 -0.5 Z M 84.5516652641366 0.5 L 103.5798930282732 0.5 L 103.5798930282732 3.5 L 110.5798930282732 0 L 103.5798930282732 -3.5 L 103.5798930282732 -0.5 L 84.5516652641366 -0.5 Z"/><text text-anchor="middle" pointer-events="none" font-size="8px" fill="#000000" x="64.2899465141366" y="3" font-family="sans-serif">RAILWAY</text></g><g class="relationship" transform="translate(167.9268843936563 -44.6975697158787) rotate(427.0169534685118)"><path class="outline" fill="#A5ABB6" stroke="none" d="M 25 0.5 L 51.245360176893186 0.5 L 51.245360176893186 -0.5 L 25 -0.5 Z M 91.76879767689319 0.5 L 118.01415785378637 0.5 L 118.01415785378637 3.5 L 125.01415785378637 0 L 118.01415785378637 -3.5 L 118.01415785378637 -0.5 L 91.76879767689319 -0.5 Z"/><text text-anchor="middle" pointer-events="none" font-size="8px" fill="#000000" x="71.50707892689319" y="3" font-family="sans-serif">RAILWAY</text></g><g class="relationship" transform="translate(-151.13849416384747 249.32826118429992) rotate(251.39543590861553)"><path class="outline" fill="#A5ABB6" stroke="none" d="M 25 0.5 L 50.792756090226035 0.5 L 50.792756090226035 -0.5 L 25 -0.5 Z M 91.31619359022604 0.5 L 117.10894968045207 0.5 L 117.10894968045207 3.5 L 124.10894968045207 0 L 117.10894968045207 -3.5 L 117.10894968045207 -0.5 L 91.31619359022604 -0.5 Z"/><text text-anchor="middle" pointer-events="none" font-size="8px" fill="#000000" x="71.05447484022604" y="3" transform="rotate(180 71.05447484022604 0)" font-family="sans-serif">RAILWAY</text></g><g class="relationship" transform="translate(6.369572279852255 187.1712038758428) rotate(518.4644310769929)"><path class="outline" fill="#A5ABB6" stroke="none" d="M 25 0.5 L 60.90275249986925 0.5 L 60.90275249986925 -0.5 L 25 -0.5 Z M 101.42618999986925 0.5 L 137.3289424997385 0.5 L 137.3289424997385 3.5 L 144.3289424997385 0 L 137.3289424997385 -3.5 L 137.3289424997385 -0.5 L 101.42618999986925 -0.5 Z"/><text text-anchor="middle" pointer-events="none" font-size="8px" fill="#000000" x="81.16447124986925" y="3" transform="rotate(180 81.16447124986925 0)" font-family="sans-serif">RAILWAY</text></g><g class="relationship" transform="translate(168.7121719266978 -173.5652574752656) rotate(494.2135928097903)"><path class="outline" fill="#A5ABB6" stroke="none" d="M 24.018736134675446,6.953439040707552 L 24.277555179777966,5.987513214418485 A 116.88350229346169 116.88350229346169 0 0 0 31.336502467850554,7.646094777767573 L 31.138076439294966,8.626210643975071 A 117.88350229346169 117.88350229346169 0 0 1 24.018736134675446,6.953439040707552 Z M 74.40303366008702,9.282899076661039 L 74.23444516685578,8.297212554510097 A 116.88350229346169 116.88350229346169 0 0 0 81.34047800818485,6.8536312869600735 L 80.65232495363504,3.93362351753312 L 88.26852164593937,5.734608787915025 L 82.25801541425126,10.746974979529346 L 81.56986235970146,7.826967210102392 A 117.88350229346169 117.88350229346169 0 0 1 74.40303366008702,9.282899076661039"/><text text-anchor="middle" pointer-events="none" font-size="8px" fill="#000000" x="52.74775499901904" y="13.456702862102418" transform="rotate(180 52.74775499901904 10.456702862102418)" font-family="sans-serif">HIGHWAY</text></g><g class="relationship" transform="translate(168.7121719266978 -173.5652574752656) rotate(494.2135928097903)"><path class="outline" fill="#A5ABB6" stroke="none" d="M 24.018736134675446,-6.953439040707552 L 24.277555179777966,-5.987513214418485 A 116.88350229346169 116.88350229346169 0 0 1 32.70864036769153,-7.915352458365064 L 32.521953702458546,-8.897771966021637 A 117.88350229346169 117.88350229346169 0 0 0 24.018736134675446,-6.953439040707552 Z M 73.01155210856922,-9.512335174340606 L 72.85476748546778,-8.52470235696417 A 116.88350229346169 116.88350229346169 0 0 1 81.34047800818485,-6.8536312869600735 L 80.65232495363504,-3.93362351753312 L 88.26852164593937,-5.734608787915025 L 82.25801541425126,-10.746974979529346 L 81.56986235970146,-7.826967210102392 A 117.88350229346169 117.88350229346169 0 0 0 73.01155210856922,-9.512335174340606"/><text text-anchor="middle" pointer-events="none" font-size="8px" fill="#000000" x="52.74775499901904" y="-7.456702862102418" transform="rotate(180 52.74775499901904 -10.456702862102418)" font-family="sans-serif">RAILWAY</text></g><g class="relationship" transform="translate(260.83419783714135 -143.4403593375621) rotate(198.10830417934312)"><path class="outline" fill="#A5ABB6" stroke="none" d="M 25 0.5 L 25.59017208584936 0.5 L 25.59017208584936 -0.5 L 25 -0.5 Z M 64.33235958584936 0.5 L 64.92253167169872 0.5 L 64.92253167169872 3.5 L 71.92253167169872 0 L 64.92253167169872 -3.5 L 64.92253167169872 -0.5 L 64.33235958584936 -0.5 Z"/><text text-anchor="middle" pointer-events="none" font-size="8px" fill="#000000" x="44.96126583584936" y="3" transform="rotate(180 44.96126583584936 0)" font-family="sans-serif">RAILW…</text></g><g class="relationship" transform="translate(-115.77280651336036 177.22270012525323) rotate(219.8453166030352)"><path class="outline" fill="#A5ABB6" stroke="none" d="M 25 0.5 L 28.84487029585341 0.5 L 28.84487029585341 -0.5 L 25 -0.5 Z M 72.17690154585341 0.5 L 76.02177184170682 0.5 L 76.02177184170682 3.5 L 83.02177184170682 0 L 76.02177184170682 -3.5 L 76.02177184170682 -0.5 L 72.17690154585341 -0.5 Z"/><text text-anchor="middle" pointer-events="none" font-size="8px" fill="#000000" x="50.51088592085341" y="3" transform="rotate(180 50.51088592085341 0)" font-family="sans-serif">HIGHWAY</text></g><g class="relationship" transform="translate(-115.77280651336036 177.22270012525323) rotate(476.12661200728905)"><path class="outline" fill="#A5ABB6" stroke="none" d="M 25 0.5 L 26.76709918792359 0.5 L 26.76709918792359 -0.5 L 25 -0.5 Z M 46.54444293792359 0.5 L 48.31154212584718 0.5 L 48.31154212584718 3.5 L 55.31154212584718 0 L 48.31154212584718 -3.5 L 48.31154212584718 -0.5 L 46.54444293792359 -0.5 Z"/><text text-anchor="middle" pointer-events="none" font-size="8px" fill="#000000" x="36.65577106292359" y="3" transform="rotate(180 36.65577106292359 0)" font-family="sans-serif">R…</text></g><g class="relationship" transform="translate(360.960692739909 100.94127546197906) rotate(222.33580741773642)"><path class="outline" fill="#A5ABB6" stroke="none" d="M 21.40063509461097,12.933012701892217 L 21.90063509461097,12.06698729810778 A 87.24955407759744 87.24955407759744 0 0 0 42.09465028584323,20.551193322437285 L 41.8261014996027,21.51445940686503 A 88.24955407759744 88.24955407759744 0 0 1 21.40063509461097,12.933012701892217 Z M 84.95014525515023,22.591867911673006 L 84.73003385260807,21.61639317060026 A 87.24955407759744 87.24955407759744 0 0 0 105.32252799920606,14.151194832356731 L 103.95413879814257,11.481454958434025 L 111.77998590520295,11.403243342195712 L 107.14704693395737,17.710847997587006 L 105.77865773289388,15.0411081236643 A 88.24955407759744 88.24955407759744 0 0 1 84.95014525515023,22.591867911673006"/><text text-anchor="middle" pointer-events="none" font-size="8px" fill="#000000" x="63.33376647665117" y="27.228837375257896" transform="rotate(180 63.33376647665117 24.228837375257896)" font-family="sans-serif">HIGHWAY</text></g><g class="relationship" transform="translate(360.960692739909 100.94127546197906) rotate(222.33580741773642)"><path class="outline" fill="#A5ABB6" stroke="none" d="M 25 0.5 L 43.39672159394607 0.5 L 43.39672159394607 -0.5 L 25 -0.5 Z M 83.63109659394607 0.5 L 102.02781818789214 0.5 L 102.02781818789214 3.5 L 109.02781818789214 0 L 102.02781818789214 -3.5 L 102.02781818789214 -0.5 L 83.63109659394607 -0.5 Z"/><text text-anchor="middle" pointer-events="none" font-size="8px" fill="#000000" x="63.51390909394607" y="3" transform="rotate(180 63.51390909394607 0)" font-family="sans-serif">BUSLINE</text></g><g class="relationship" transform="translate(360.960692739909 100.94127546197906) rotate(222.33580741773642)"><path class="outline" fill="#A5ABB6" stroke="none" d="M 21.40063509461097,-12.933012701892217 L 21.90063509461097,-12.06698729810778 A 87.24955407759744 87.24955407759744 0 0 1 43.44259700219176,-20.915388552428183 L 43.189497540943194,-21.882828815553353 A 88.24955407759744 88.24955407759744 0 0 0 21.40063509461097,-12.933012701892217 Z M 83.57005505222703,-22.891694225721395 L 83.36558214460247,-21.912822002166365 A 87.24955407759744 87.24955407759744 0 0 1 105.32252799920606,-14.151194832356731 L 103.95413879814257,-11.481454958434025 L 111.77998590520295,-11.403243342195712 L 107.14704693395737,-17.710847997587006 L 105.77865773289388,-15.0411081236643 A 88.24955407759744 88.24955407759744 0 0 0 83.57005505222703,-22.891694225721395"/><text text-anchor="middle" pointer-events="none" font-size="8px" fill="#000000" x="63.33376647665114" y="-21.228837375257896" transform="rotate(180 63.33376647665114 -24.228837375257896)" font-family="sans-serif">RAILWAY</text></g><g class="relationship" transform="translate(42.90523558538118 82.09702232207609) rotate(254.72226253841927)"><path class="outline" fill="#A5ABB6" stroke="none" d="M 25 0.5 L 31.496513396449103 0.5 L 31.496513396449103 -0.5 L 25 -0.5 Z M 72.0199508964491 0.5 L 78.5164642928982 0.5 L 78.5164642928982 3.5 L 85.5164642928982 0 L 78.5164642928982 -3.5 L 78.5164642928982 -0.5 L 72.0199508964491 -0.5 Z"/><text text-anchor="middle" pointer-events="none" font-size="8px" fill="#000000" x="51.7582321464491" y="3" transform="rotate(180 51.7582321464491 0)" font-family="sans-serif">RAILWAY</text></g><g class="relationship" transform="translate(90.19089392720072 -92.85837284348318) rotate(252.58807615394136)"><path class="outline" fill="#A5ABB6" stroke="none" d="M 24.018736134675446,-6.953439040707552 L 24.277555179777966,-5.987513214418485 A 150.7355930431544 150.7355930431544 0 0 1 39.79093402727342,-9.280607170706219 L 39.63503280359781,-10.268379820892704 A 151.7355930431544 151.7355930431544 0 0 0 24.018736134675446,-6.953439040707552 Z M 82.95794590744202,-10.843730545952042 L 82.82833130562821,-9.852166097720556 A 150.7355930431544 150.7355930431544 0 0 1 98.42369142451669,-6.97221230763284 L 97.72446253077513,-4.054836953970414 L 105.34743873201927,-5.826907447846284 L 99.35599661617209,-10.862046112516074 L 98.65676772243053,-7.944670758853648 A 151.7355930431544 151.7355930431544 0 0 0 82.95794590744202,-10.843730545952042"/><text text-anchor="middle" pointer-events="none" font-size="8px" fill="#000000" x="61.2824875234662" y="-8.61036888624318" transform="rotate(180 61.2824875234662 -11.61036888624318)" font-family="sans-serif">HIGHWAY</text></g><g class="relationship" transform="translate(90.19089392720072 -92.85837284348318) rotate(252.58807615394136)"><path class="outline" fill="#A5ABB6" stroke="none" d="M 24.018736134675446,6.953439040707552 L 24.277555179777966,5.987513214418485 A 150.7355930431544 150.7355930431544 0 0 0 41.17446730463044,9.492393090313868 L 41.027744624983,10.481570756497774 A 151.7355930431544 151.7355930431544 0 0 1 24.018736134675446,6.953439040707552 Z M 81.5600636970519,11.019860947430999 L 81.43966171425748,10.027135727373008 A 150.7355930431544 150.7355930431544 0 0 0 98.42369142451669,6.97221230763284 L 97.72446253077513,4.054836953970414 L 105.34743873201927,5.826907447846284 L 99.35599661617209,10.862046112516074 L 98.65676772243053,7.944670758853648 A 151.7355930431544 151.7355930431544 0 0 1 81.5600636970519,11.019860947430999"/><text text-anchor="middle" pointer-events="none" font-size="8px" fill="#000000" x="61.28248752346618" y="14.61036888624318" transform="rotate(180 61.28248752346618 11.61036888624318)" font-family="sans-serif">RAILWAY</text></g><g class="relationship" transform="translate(-256.2425489362794 5.523520686472029) rotate(420.6916455940469)"><path class="outline" fill="#A5ABB6" stroke="none" d="M 25 0.5 L 41.67231852296731 0.5 L 41.67231852296731 -0.5 L 25 -0.5 Z M 68.85981852296732 0.5 L 85.53213704593462 0.5 L 85.53213704593462 3.5 L 92.53213704593462 0 L 85.53213704593462 -3.5 L 85.53213704593462 -0.5 L 68.85981852296732 -0.5 Z"/><text text-anchor="middle" pointer-events="none" font-size="8px" fill="#000000" x="55.26606852296731" y="3" font-family="sans-serif">BOAT</text></g><g class="relationship" transform="translate(-256.2425489362794 5.523520686472029) rotate(523.1721326010326)"><path class="outline" fill="#A5ABB6" stroke="none" d="M 25 0.5 L 30.783366763945658 0.5 L 30.783366763945658 -0.5 L 25 -0.5 Z M 71.30680426394565 0.5 L 77.09017102789132 0.5 L 77.09017102789132 3.5 L 84.09017102789132 0 L 77.09017102789132 -3.5 L 77.09017102789132 -0.5 L 71.30680426394565 -0.5 Z"/><text text-anchor="middle" pointer-events="none" font-size="8px" fill="#000000" x="51.04508551394566" y="3" transform="rotate(180 51.04508551394566 0)" font-family="sans-serif">RAILWAY</text></g><g class="relationship" transform="translate(226.50122340157128 93.40852850706938) rotate(424.8705159215416)"><path class="outline" fill="#A5ABB6" stroke="none" d="M 24.018736134675446,-6.953439040707552 L 24.277555179777966,-5.987513214418485 A 204.23660582336385 204.23660582336385 0 0 1 54.70905799648564,-11.711428977177746 L 54.599240168349226,-12.705380708713733 A 205.23660582336385 205.23660582336385 0 0 0 24.018736134675446,-6.953439040707552 Z M 95.15287823935535,-13.154529008050218 L 95.06510150141366,-12.158388835044292 A 204.23660582336385 204.23660582336385 0 0 1 125.61591340067454,-7.109877407065631 L 124.90382702324071,-4.1956136936942485 L 132.5345431281134,-5.934053145281918 L 126.56536190391965,-10.995562358227474 L 125.85327552648582,-8.081298644856092 A 205.23660582336385 205.23660582336385 0 0 0 95.15287823935535,-13.154529008050218"/><text text-anchor="middle" pointer-events="none" font-size="8px" fill="#000000" x="74.87047502357811" y="-10.43415096932435" font-family="sans-serif">RAILWAY</text></g><g class="relationship" transform="translate(226.50122340157128 93.40852850706938) rotate(424.8705159215416)"><path class="outline" fill="#A5ABB6" stroke="none" d="M 24.018736134675446,6.953439040707552 L 24.277555179777966,5.987513214418485 A 204.23660582336385 204.23660582336385 0 0 0 54.70905799648558,11.711428977177746 L 54.59924016834917,12.705380708713733 A 205.23660582336385 205.23660582336385 0 0 1 24.018736134675446,6.953439040707552 Z M 95.15287823935536,13.154529008050218 L 95.0651015014137,12.158388835044292 A 204.23660582336385 204.23660582336385 0 0 0 125.61591340067454,7.109877407065631 L 124.90382702324071,4.1956136936942485 L 132.5345431281134,5.934053145281918 L 126.56536190391965,10.995562358227474 L 125.85327552648582,8.081298644856092 A 205.23660582336385 205.23660582336385 0 0 1 95.15287823935536,13.154529008050218"/><text text-anchor="middle" pointer-events="none" font-size="8px" fill="#000000" x="74.8704750235781" y="16.43415096932435" font-family="sans-serif">RAILWAY</text></g><g class="relationship" transform="translate(293.0972777189491 235.38564349951739) rotate(440.61053046016167)"><path class="outline" fill="#A5ABB6" stroke="none" d="M 25 0.5 L 40.326057785436305 0.5 L 40.326057785436305 -0.5 L 25 -0.5 Z M 80.8494952854363 0.5 L 96.17555307087261 0.5 L 96.17555307087261 3.5 L 103.17555307087261 0 L 96.17555307087261 -3.5 L 96.17555307087261 -0.5 L 80.8494952854363 -0.5 Z"/><text text-anchor="middle" pointer-events="none" font-size="8px" fill="#000000" x="60.587776535436305" y="3" font-family="sans-serif">RAILWAY</text></g><g class="relationship" transform="translate(-101.67551351899898 40.93685675476596) rotate(238.70161445216314)"><path class="outline" fill="#A5ABB6" stroke="none" d="M 25 0.5 L 27.45451825811884 0.5 L 27.45451825811884 -0.5 L 25 -0.5 Z M 46.79045575811884 0.5 L 49.24497401623768 0.5 L 49.24497401623768 3.5 L 56.24497401623768 0 L 49.24497401623768 -3.5 L 49.24497401623768 -0.5 L 46.79045575811884 -0.5 Z"/><text text-anchor="middle" pointer-events="none" font-size="8px" fill="#000000" x="37.12248700811884" y="3" transform="rotate(180 37.12248700811884 0)" font-family="sans-serif">B…</text></g><g class="relationship" transform="translate(-101.67551351899898 40.93685675476596) rotate(330.4524356315362)"><path class="outline" fill="#A5ABB6" stroke="none" d="M 24.018736134675446,-6.953439040707552 L 24.277555179777966,-5.987513214418485 A 156.78752710166742 156.78752710166742 0 0 1 49.2958794586737,-10.555773707956519 L 49.196628746214586,-11.550836166336097 A 157.78752710166742 157.78752710166742 0 0 0 24.018736134675446,-6.953439040707552 Z M 76.43431630073222,-11.904626546465067 L 76.36094444881736,-10.907321893238873 A 156.78752710166742 156.78752710166742 0 0 1 101.48948253125513,-6.990419098902736 L 100.78855312736287,-4.073451843214178 L 108.41256102851048,-5.841078365768878 L 102.42405506977816,-10.879708773154146 L 101.7231256658859,-7.962741517465588 A 157.78752710166742 157.78752710166742 0 0 0 76.43431630073222,-11.904626546465067"/><text text-anchor="middle" pointer-events="none" font-size="8px" fill="#000000" x="62.81431753292472" y="-8.816652009590825" font-family="sans-serif">BOAT</text></g><g class="relationship" transform="translate(-198.70943900129464 108.01129800549343) rotate(325.34593701244734)"><path class="outline" fill="#A5ABB6" stroke="none" d="M 25 0.5 L 41.88625373770969 0.5 L 41.88625373770969 -0.5 L 25 -0.5 Z M 69.0737537377097 0.5 L 85.96000747541937 0.5 L 85.96000747541937 3.5 L 92.96000747541937 0 L 85.96000747541937 -3.5 L 85.96000747541937 -0.5 L 69.0737537377097 -0.5 Z"/><text text-anchor="middle" pointer-events="none" font-size="8px" fill="#000000" x="55.48000373770969" y="3" font-family="sans-serif">BOAT</text></g><g class="relationship" transform="translate(-198.70943900129464 108.01129800549343) rotate(291.8842709888047)"><path class="outline" fill="#A5ABB6" stroke="none" d="M 24.018736134675446,-6.953439040707552 L 24.277555179777966,-5.987513214418485 A 185.12632792714277 185.12632792714277 0 0 1 48.46968665520699,-10.769374894057648 L 48.341546653686805,-11.761130983028323 A 186.12632792714277 186.12632792714277 0 0 0 24.018736134675446,-6.953439040707552 Z M 91.68870657326956,-12.271560905298315 L 91.58395550342799,-11.277062432012883 A 185.12632792714277 185.12632792714277 0 0 1 115.8819799560453,-7.066191483188142 L 115.17397360414452,-4.15093386066691 L 122.80224880057831,-5.90005293250652 L 116.82598842524635,-10.953201646549784 L 116.11798207334557,-8.037944024028553 A 186.12632792714277 186.12632792714277 0 0 0 91.68870657326956,-12.271560905298315"/><text text-anchor="middle" pointer-events="none" font-size="8px" fill="#000000" x="70.00610282464157" y="-9.78267174270107" font-family="sans-serif">HIGHWAY</text></g><g class="relationship" transform="translate(-198.70943900129464 108.01129800549343) rotate(291.8842709888047)"><path class="outline" fill="#A5ABB6" stroke="none" d="M 24.018736134675446,6.953439040707552 L 24.277555179777966,5.987513214418485 A 185.12632792714277 185.12632792714277 0 0 0 49.85932080310483,10.943581210091793 L 49.738687211739574,11.936278312250522 A 186.12632792714277 186.12632792714277 0 0 1 24.018736134675446,6.953439040707552 Z M 90.28782913027206,12.413760467851688 L 90.19060454772864,11.418497999680966 A 185.12632792714277 185.12632792714277 0 0 0 115.8819799560453,7.066191483188142 L 115.17397360414452,4.15093386066691 L 122.80224880057831,5.90005293250652 L 116.82598842524635,10.953201646549784 L 116.11798207334557,8.037944024028553 A 186.12632792714277 186.12632792714277 0 0 1 90.28782913027206,12.413760467851688"/><text text-anchor="middle" pointer-events="none" font-size="8px" fill="#000000" x="70.00610282464159" y="15.78267174270107" font-family="sans-serif">RAILWAY</text></g><g class="relationship" transform="translate(-143.88187415169696 -28.484817994852246) rotate(523.160448486903)"><path class="outline" fill="#A5ABB6" stroke="none" d="M 24.018736134675446,6.953439040707552 L 24.277555179777966,5.987513214418485 A 126.42168511266213 126.42168511266213 0 0 0 33.70638684000619,8.1311303146054 L 33.52215018677596,9.114012227963528 A 127.42168511266213 127.42168511266213 0 0 1 24.018736134675446,6.953439040707552 Z M 76.80930760085789,9.745675170934277 L 76.65382847199177,8.757835993493416 A 126.42168511266213 126.42168511266213 0 0 0 86.1411931395133,6.890251346255541 L 85.44961958282515,3.9710517957469267 L 93.06792101681476,5.763112972401283 L 87.06329121509752,10.78251741360036 L 86.37171765840937,7.863317863091746 A 127.42168511266213 127.42168511266213 0 0 1 76.80930760085789,9.745675170934277"/><text text-anchor="middle" pointer-events="none" font-size="8px" fill="#000000" x="55.146001841267626" y="13.781716622374077" transform="rotate(180 55.146001841267626 10.781716622374077)" font-family="sans-serif">HIGHWAY</text></g><g class="relationship" transform="translate(-143.88187415169696 -28.484817994852246) rotate(361.44276843639796)"><path class="outline" fill="#A5ABB6" stroke="none" d="M 25 0.5 L 61.76435765508553 0.5 L 61.76435765508553 -0.5 L 25 -0.5 Z M 88.95185765508553 0.5 L 125.71621531017107 0.5 L 125.71621531017107 3.5 L 132.71621531017107 0 L 125.71621531017107 -3.5 L 125.71621531017107 -0.5 L 88.95185765508553 -0.5 Z"/><text text-anchor="middle" pointer-events="none" font-size="8px" fill="#000000" x="75.35810765508553" y="3" font-family="sans-serif">BOAT</text></g><g class="relationship" transform="translate(-143.88187415169696 -28.484817994852246) rotate(523.160448486903)"><path class="outline" fill="#A5ABB6" stroke="none" d="M 24.018736134675446,-6.953439040707552 L 24.277555179777966,-5.987513214418485 A 126.42168511266213 126.42168511266213 0 0 1 35.082604987852726,-8.381223169057222 L 34.90925426884035,-9.366083325738302 A 127.42168511266213 127.42168511266213 0 0 0 24.018736134675446,-6.953439040707552 Z M 75.41543905494953,-9.95716524053708 L 75.27089894752766,-8.967666297967412 A 126.42168511266213 126.42168511266213 0 0 1 86.1411931395133,-6.890251346255541 L 85.44961958282515,-3.9710517957469267 L 93.06792101681476,-5.763112972401283 L 87.06329121509752,-10.78251741360036 L 86.37171765840937,-7.863317863091746 A 127.42168511266213 127.42168511266213 0 0 0 75.41543905494953,-9.95716524053708"/><text text-anchor="middle" pointer-events="none" font-size="8px" fill="#000000" x="55.1460018412676" y="-7.781716622374077" transform="rotate(180 55.1460018412676 -10.781716622374077)" font-family="sans-serif">RAILWAY</text></g><g class="relationship" transform="translate(121.05275076433784 45.31931366403447) rotate(213.06463577119985)"><path class="outline" fill="#A5ABB6" stroke="none" d="M 24.018736134675446,6.953439040707552 L 24.277555179777966,5.987513214418485 A 147.44739836292476 147.44739836292476 0 0 0 38.96506253923701,9.130998091772966 L 38.80585533891799,10.11824328288131 A 148.44739836292476 148.44739836292476 0 0 1 24.018736134675446,6.953439040707552 Z M 82.1251768485147,10.700642206048911 L 81.99256807908739,9.709473746970929 A 147.44739836292476 147.44739836292476 0 0 0 96.75927564307786,6.961980830163753 L 96.06100237415893,4.044376600335232 L 103.68339772416422,5.818943907657687 L 97.6903066683031,10.85211980326845 L 96.99203339938417,7.934515573439928 A 148.44739836292476 148.44739836292476 0 0 1 82.1251768485147,10.700642206048911"/><text text-anchor="middle" pointer-events="none" font-size="8px" fill="#000000" x="60.450877245783445" y="14.498292560131858" transform="rotate(180 60.450877245783445 11.498292560131858)" font-family="sans-serif">HIGHWAY</text></g><g class="relationship" transform="translate(121.05275076433784 45.31931366403447) rotate(522.2698477490785)"><path class="outline" fill="#A5ABB6" stroke="none" d="M 24.018736134675446,6.953439040707552 L 24.277555179777966,5.987513214418485 A 179.9667323056725 179.9667323056725 0 0 0 47.16355428033951,10.5533211369154 L 47.03190317793037,11.544617251723935 A 180.9667323056725 180.9667323056725 0 0 1 24.018736134675446,6.953439040707552 Z M 90.37657360724744,12.063865341781735 L 90.26870736922021,11.06969992561909 A 179.9667323056725 179.9667323056725 0 0 0 113.25751535386635,7.053449900894406 L 112.55069901355805,4.1379035265293584 L 120.17825961743618,5.89013616923587 L 114.19993714094409,10.94084506671447 L 113.49312080063578,8.025298692349422 A 180.9667323056725 180.9667323056725 0 0 1 90.37657360724744,12.063865341781735"/><text text-anchor="middle" pointer-events="none" font-size="8px" fill="#000000" x="68.69462433260719" y="15.60678302848737" transform="rotate(180 68.69462433260719 12.60678302848737)" font-family="sans-serif">HIGHWAY</text></g><g class="relationship" transform="translate(121.05275076433784 45.31931366403447) rotate(257.4096820297087)"><path class="outline" fill="#A5ABB6" stroke="none" d="M 25 0.5 L 47.17392644801923 0.5 L 47.17392644801923 -0.5 L 25 -0.5 Z M 87.40830144801923 0.5 L 109.58222789603846 0.5 L 109.58222789603846 3.5 L 116.58222789603846 0 L 109.58222789603846 -3.5 L 109.58222789603846 -0.5 L 87.40830144801923 -0.5 Z"/><text text-anchor="middle" pointer-events="none" font-size="8px" fill="#000000" x="67.29111394801923" y="3" transform="rotate(180 67.29111394801923 0)" font-family="sans-serif">BUSLINE</text></g><g class="relationship" transform="translate(121.05275076433784 45.31931366403447) rotate(424.626267511418)"><path class="outline" fill="#A5ABB6" stroke="none" d="M 25 0.5 L 44.073726720208214 0.5 L 44.073726720208214 -0.5 L 25 -0.5 Z M 84.30810172020821 0.5 L 103.38182844041643 0.5 L 103.38182844041643 3.5 L 110.38182844041643 0 L 103.38182844041643 -3.5 L 103.38182844041643 -0.5 L 84.30810172020821 -0.5 Z"/><text text-anchor="middle" pointer-events="none" font-size="8px" fill="#000000" x="64.19091422020821" y="3" font-family="sans-serif">BUSLINE</text></g><g class="relationship" transform="translate(121.05275076433784 45.31931366403447) rotate(452.5651342142414)"><path class="outline" fill="#A5ABB6" stroke="none" d="M 25 0.5 L 46.26738117794571 0.5 L 46.26738117794571 -0.5 L 25 -0.5 Z M 86.50175617794571 0.5 L 107.76913735589142 0.5 L 107.76913735589142 3.5 L 114.76913735589142 0 L 107.76913735589142 -3.5 L 107.76913735589142 -0.5 L 86.50175617794571 -0.5 Z"/><text text-anchor="middle" pointer-events="none" font-size="8px" fill="#000000" x="66.38456867794571" y="3" transform="rotate(180 66.38456867794571 0)" font-family="sans-serif">BUSLINE</text></g><g class="relationship" transform="translate(121.05275076433784 45.31931366403447) rotate(488.9545439680524)"><path class="outline" fill="#A5ABB6" stroke="none" d="M 24.018736134675446,-6.953439040707552 L 24.277555179777966,-5.987513214418485 A 254.36628698889587 254.36628698889587 0 0 1 66.08872759505924,-13.517833448386767 L 65.99428242556039,-14.51336351320569 A 255.36628698889587 255.36628698889587 0 0 0 24.018736134675446,-6.953439040707552 Z M 109.35706047664397,-14.928652853116148 L 109.28169944908215,-13.931496538627385 A 254.36628698889587 254.36628698889587 0 0 1 151.22942658734587,-7.203343040061551 L 150.50861134929318,-4.29122604505757 L 158.14450211536396,-6.00679365043923 L 152.19051357141615,-11.086165700066859 L 151.46969833336345,-8.174048705062878 A 255.36628698889587 255.36628698889587 0 0 0 109.35706047664397,-14.928652853116148"/><text text-anchor="middle" pointer-events="none" font-size="8px" fill="#000000" x="87.671628590391" y="-12.14314681004754" transform="rotate(180 87.671628590391 -15.14314681004754)" font-family="sans-serif">HIGHWAY</text></g><g class="relationship" transform="translate(121.05275076433784 45.31931366403447) rotate(522.2698477490785)"><path class="outline" fill="#A5ABB6" stroke="none" d="M 24.018736134675446,-6.953439040707552 L 24.277555179777966,-5.987513214418485 A 179.9667323056725 179.9667323056725 0 0 1 48.6955015255485,-10.750088485611144 L 48.572362814432914,-11.742477954431138 A 180.9667323056725 180.9667323056725 0 0 0 24.018736134675446,-6.953439040707552 Z M 88.83181617626241,-12.224766643163719 L 88.7324860786147,-11.229712106114988 A 179.9667323056725 179.9667323056725 0 0 1 113.25751535386635,-7.053449900894406 L 112.55069901355805,-4.1379035265293584 L 120.17825961743618,-5.89013616923587 L 114.19993714094409,-10.94084506671447 L 113.49312080063578,-8.025298692349422 A 180.9667323056725 180.9667323056725 0 0 0 88.83181617626241,-12.224766643163719"/><text text-anchor="middle" pointer-events="none" font-size="8px" fill="#000000" x="68.6946243326071" y="-9.60678302848737" transform="rotate(180 68.6946243326071 -12.60678302848737)" font-family="sans-serif">BUSLINE</text></g><g class="relationship" transform="translate(121.05275076433784 45.31931366403447) rotate(213.06463577119985)"><path class="outline" fill="#A5ABB6" stroke="none" d="M 24.018736134675446,-6.953439040707552 L 24.277555179777966,-5.987513214418485 A 147.44739836292476 147.44739836292476 0 0 1 40.4902265434973,-9.368768200727203 L 40.341363126935704,-10.357625967653064 A 148.44739836292476 148.44739836292476 0 0 0 24.018736134675446,-6.953439040707552 Z M 80.58378853289739,-10.898658107708428 L 80.46156316077185,-9.906155735716936 A 147.44739836292476 147.44739836292476 0 0 1 96.75927564307786,-6.961980830163753 L 96.06100237415893,-4.044376600335232 L 103.68339772416422,-5.818943907657687 L 97.6903066683031,-10.85211980326845 L 96.99203339938417,-7.934515573439928 A 148.44739836292476 148.44739836292476 0 0 0 80.58378853289739,-10.898658107708428"/><text text-anchor="middle" pointer-events="none" font-size="8px" fill="#000000" x="60.45087724578343" y="-8.498292560131858" transform="rotate(180 60.45087724578343 -11.498292560131858)" font-family="sans-serif">BUSLINE</text></g><g class="relationship" transform="translate(121.05275076433784 45.31931366403447) rotate(297.50716592677446)"><path class="outline" fill="#A5ABB6" stroke="none" d="M 25 0.5 L 26.98329011031081 0.5 L 26.98329011031081 -0.5 L 25 -0.5 Z M 67.5067276103108 0.5 L 69.49001772062162 0.5 L 69.49001772062162 3.5 L 76.49001772062162 0 L 69.49001772062162 -3.5 L 69.49001772062162 -0.5 L 67.5067276103108 -0.5 Z"/><text text-anchor="middle" pointer-events="none" font-size="8px" fill="#000000" x="47.24500886031081" y="3" font-family="sans-serif">RAILWAY</text></g><g class="relationship" transform="translate(121.05275076433784 45.31931366403447) rotate(488.9545439680524)"><path class="outline" fill="#A5ABB6" stroke="none" d="M 24.018736134675446,6.953439040707552 L 24.277555179777966,5.987513214418485 A 254.36628698889587 254.36628698889587 0 0 0 67.48436231178323,13.646357707689276 L 67.39540385490359,14.642393044888536 A 255.36628698889587 255.36628698889587 0 0 1 24.018736134675446,6.953439040707552 Z M 107.95372481853347,15.030823839636497 L 107.88385917438605,14.033267429317846 A 254.36628698889587 254.36628698889587 0 0 0 151.22942658734587,7.203343040061551 L 150.50861134929318,4.29122604505757 L 158.14450211536396,6.00679365043923 L 152.19051357141615,11.086165700066859 L 151.46969833336345,8.174048705062878 A 255.36628698889587 255.36628698889587 0 0 1 107.95372481853347,15.030823839636497"/><text text-anchor="middle" pointer-events="none" font-size="8px" fill="#000000" x="87.67162859039101" y="18.14314681004754" transform="rotate(180 87.67162859039101 15.14314681004754)" font-family="sans-serif">RAILWAY</text></g><g class="relationship" transform="translate(121.05275076433784 45.31931366403447) rotate(514.7974313366445)"><path class="outline" fill="#A5ABB6" stroke="none" d="M 24.018736134675446,6.953439040707552 L 24.277555179777966,5.987513214418485 A 64.12657617904844 64.12657617904844 0 0 0 26.196464113863705,6.470080257290768 L 25.9675688390359,7.443531310585946 A 65.12657617904844 65.12657617904844 0 0 1 24.018736134675446,6.953439040707552 Z M 53.30492439934845,7.9753432974075835 L 53.11406237747521,6.993726422753085 A 64.12657617904844 64.12657617904844 0 0 0 55.05028775697503,6.586155903749009 L 54.38712027434215,3.6603724377388582 L 61.9876437581042,5.526395688607318 L 55.9345110671522,10.487200525095876 L 55.27134358451932,7.561417059085726 A 65.12657617904844 65.12657617904844 0 0 1 53.30492439934845,7.9753432974075835"/><text text-anchor="middle" pointer-events="none" font-size="8px" fill="#000000" x="39.61774791375653" y="11.660347964965439" transform="rotate(180 39.61774791375653 8.660347964965439)" font-family="sans-serif">RAI…</text></g><g class="relationship" transform="translate(121.05275076433784 45.31931366403447) rotate(384.5151050153987)"><path class="outline" fill="#A5ABB6" stroke="none" d="M 25 0.5 L 34.186432570264174 0.5 L 34.186432570264174 -0.5 L 25 -0.5 Z M 74.70987007026417 0.5 L 83.89630264052835 0.5 L 83.89630264052835 3.5 L 90.89630264052835 0 L 83.89630264052835 -3.5 L 83.89630264052835 -0.5 L 74.70987007026417 -0.5 Z"/><text text-anchor="middle" pointer-events="none" font-size="8px" fill="#000000" x="54.448151320264174" y="3" font-family="sans-serif">RAILWAY</text></g><g class="relationship" transform="translate(121.05275076433784 45.31931366403447) rotate(514.7974313366445)"><path class="outline" fill="#A5ABB6" stroke="none" d="M 24.018736134675446,-6.953439040707552 L 24.277555179777966,-5.987513214418485 A 64.12657617904844 64.12657617904844 0 0 1 26.196464113863705,-6.470080257290768 L 25.9675688390359,-7.443531310585946 A 65.12657617904844 65.12657617904844 0 0 0 24.018736134675446,-6.953439040707552 Z M 53.30492439934843,-7.975343297407591 L 53.114062377475186,-6.993726422753092 A 64.12657617904844 64.12657617904844 0 0 1 55.05028775697503,-6.586155903749009 L 54.38712027434215,-3.6603724377388582 L 61.9876437581042,-5.526395688607318 L 55.9345110671522,-10.487200525095876 L 55.27134358451932,-7.561417059085726 A 65.12657617904844 65.12657617904844 0 0 0 53.30492439934843,-7.975343297407591"/><text text-anchor="middle" pointer-events="none" font-size="8px" fill="#000000" x="39.617747913756524" y="-5.660347964965439" transform="rotate(180 39.617747913756524 -8.660347964965439)" font-family="sans-serif">RAI…</text></g></g><g class="layer nodes"><g class="node" transform="translate(261.8859428221085,10.676941548012998)"><circle class="outline" cx="0" cy="0" r="25" fill="#F79767" stroke="#f36924" stroke-width="2px"/><text text-anchor="middle" pointer-events="none" font-family="sans-serif" dy="1.5625" font-size="25" fill="#FFFFFF"/><text text-anchor="middle" pointer-events="none" y="5" font-size="10px" fill="#FFFFFF" font-family="sans-serif"> Mieres</text></g><g class="node" transform="translate(13.784340997425238,-24.51377627825616)"><circle class="outline" cx="0" cy="0" r="25" fill="#57C7E3" stroke="#23b3d7" stroke-width="2px"/><text text-anchor="middle" pointer-events="none" font-family="sans-serif" dy="1.5625" font-size="25" fill="#FFFFFF"/><text text-anchor="middle" pointer-events="none" y="5" font-size="10px" fill="#FFFFFF" font-family="sans-serif"> Gijón</text></g><g class="node" transform="translate(-16.559385923361692,89.31675717213236)"><circle class="outline" cx="0" cy="0" r="25" fill="#57C7E3" stroke="#23b3d7" stroke-width="2px"/><text text-anchor="middle" pointer-events="none" font-family="sans-serif" dy="1.5625" font-size="25" fill="#FFFFFF"/><text text-anchor="middle" pointer-events="none" y="5" font-size="10px" fill="#FFFFFF" font-family="sans-serif"> Aviles</text></g><g class="node" transform="translate(167.9268843936563,-44.6975697158787)"><circle class="outline" cx="0" cy="0" r="25" fill="#57C7E3" stroke="#23b3d7" stroke-width="2px"/><text text-anchor="middle" pointer-events="none" font-family="sans-serif" dy="1.5625" font-size="25" fill="#FFFFFF"/><text text-anchor="middle" pointer-events="none" font-family="sans-serif" dy="1.5625" font-size="25" fill="#FFFFFF"/><text text-anchor="middle" pointer-events="none" y="0" font-size="10px" fill="#FFFFFF" font-family="sans-serif"> Pola de</text><text text-anchor="middle" pointer-events="none" y="10" font-size="10px" fill="#FFFFFF" font-family="sans-serif"> Siero</text></g><g class="node" transform="translate(-151.13849416384747,249.32826118429992)"><circle class="outline" cx="0" cy="0" r="25" fill="#F79767" stroke="#f36924" stroke-width="2px"/><text text-anchor="middle" pointer-events="none" font-family="sans-serif" dy="1.5625" font-size="25" fill="#FFFFFF"/><text text-anchor="middle" pointer-events="none" y="5" font-size="10px" fill="#FFFFFF" font-family="sans-serif"> Pravia</text></g><g class="node" transform="translate(6.369572279852255,187.1712038758428)"><circle class="outline" cx="0" cy="0" r="25" fill="#F79767" stroke="#f36924" stroke-width="2px"/><text text-anchor="middle" pointer-events="none" font-family="sans-serif" dy="1.5625" font-size="25" fill="#FFFFFF"/><text text-anchor="middle" pointer-events="none" y="5" font-size="10px" fill="#FFFFFF" font-family="sans-serif"> Grado</text></g><g class="node" transform="translate(179.06670052148394,167.6411069203699)"><circle class="outline" cx="0" cy="0" r="25" fill="#F79767" stroke="#f36924" stroke-width="2px"/><text text-anchor="middle" pointer-events="none" font-family="sans-serif" dy="1.5625" font-size="25" fill="#FFFFFF"/><text text-anchor="middle" pointer-events="none" font-family="sans-serif" dy="1.5625" font-size="25" fill="#FFFFFF"/><text text-anchor="middle" pointer-events="none" y="0" font-size="10px" fill="#FFFFFF" font-family="sans-serif"> Cangas</text><text text-anchor="middle" pointer-events="none" y="10" font-size="10px" fill="#FFFFFF" font-family="sans-serif"> de Narc…</text></g><g class="node" transform="translate(373.5981888583208,-53.13435398507884)"><circle class="outline" cx="0" cy="0" r="25" fill="#F16667" stroke="#eb2728" stroke-width="2px"/><text text-anchor="middle" pointer-events="none" font-family="sans-serif" dy="1.5625" font-size="25" fill="#FFFFFF"/><text text-anchor="middle" pointer-events="none" y="5" font-size="10px" fill="#FFFFFF" font-family="sans-serif"> Turón</text></g><g class="node" transform="translate(114.79737135939439,184.94840084041851)"><circle class="outline" cx="0" cy="0" r="25" fill="#57C7E3" stroke="#23b3d7" stroke-width="2px"/><text text-anchor="middle" pointer-events="none" font-family="sans-serif" dy="1.5625" font-size="25" fill="#FFFFFF"/><text text-anchor="middle" pointer-events="none" font-family="sans-serif" dy="1.5625" font-size="25" fill="#FFFFFF"/><text text-anchor="middle" pointer-events="none" y="0" font-size="10px" fill="#FFFFFF" font-family="sans-serif"> Cangas</text><text text-anchor="middle" pointer-events="none" y="10" font-size="10px" fill="#FFFFFF" font-family="sans-serif"> de Onís</text></g><g class="node" transform="translate(168.7121719266978,-173.5652574752656)"><circle class="outline" cx="0" cy="0" r="25" fill="#F79767" stroke="#f36924" stroke-width="2px"/><text text-anchor="middle" pointer-events="none" font-family="sans-serif" dy="1.5625" font-size="25" fill="#FFFFFF"/><text text-anchor="middle" pointer-events="none" y="5" font-size="10px" fill="#FFFFFF" font-family="sans-serif"> Ribades…</text></g><g class="node" transform="translate(260.83419783714135,-143.4403593375621)"><circle class="outline" cx="0" cy="0" r="25" fill="#F79767" stroke="#f36924" stroke-width="2px"/><text text-anchor="middle" pointer-events="none" font-family="sans-serif" dy="1.5625" font-size="25" fill="#FFFFFF"/><text text-anchor="middle" pointer-events="none" y="5" font-size="10px" fill="#FFFFFF" font-family="sans-serif"> Nava</text></g><g class="node" transform="translate(-115.77280651336036,177.22270012525323)"><circle class="outline" cx="0" cy="0" r="25" fill="#57C7E3" stroke="#23b3d7" stroke-width="2px"/><text text-anchor="middle" pointer-events="none" font-family="sans-serif" dy="1.5625" font-size="25" fill="#FFFFFF"/><text text-anchor="middle" pointer-events="none" font-family="sans-serif" dy="1.5625" font-size="25" fill="#FFFFFF"/><text text-anchor="middle" pointer-events="none" y="0" font-size="10px" fill="#FFFFFF" font-family="sans-serif"> Piedras</text><text text-anchor="middle" pointer-events="none" y="10" font-size="10px" fill="#FFFFFF" font-family="sans-serif"> Blancas</text></g><g class="node" transform="translate(360.960692739909,100.94127546197906)"><circle class="outline" cx="0" cy="0" r="25" fill="#F79767" stroke="#f36924" stroke-width="2px"/><text text-anchor="middle" pointer-events="none" font-family="sans-serif" dy="1.5625" font-size="25" fill="#FFFFFF"/><text text-anchor="middle" pointer-events="none" font-family="sans-serif" dy="1.5625" font-size="25" fill="#FFFFFF"/><text text-anchor="middle" pointer-events="none" y="0" font-size="10px" fill="#FFFFFF" font-family="sans-serif"> Pola de</text><text text-anchor="middle" pointer-events="none" y="10" font-size="10px" fill="#FFFFFF" font-family="sans-serif"> Lena</text></g><g class="node" transform="translate(42.90523558538118,82.09702232207609)"><circle class="outline" cx="0" cy="0" r="25" fill="#57C7E3" stroke="#23b3d7" stroke-width="2px"/><text text-anchor="middle" pointer-events="none" font-family="sans-serif" dy="1.5625" font-size="25" fill="#FFFFFF"/><text text-anchor="middle" pointer-events="none" font-family="sans-serif" dy="1.5625" font-size="25" fill="#FFFFFF"/><text text-anchor="middle" pointer-events="none" y="0" font-size="10px" fill="#FFFFFF" font-family="sans-serif"> Lugo de</text><text text-anchor="middle" pointer-events="none" y="10" font-size="10px" fill="#FFFFFF" font-family="sans-serif"> Llanera</text></g><g class="node" transform="translate(393.83852766016213,28.804730695121545)"><circle class="outline" cx="0" cy="0" r="25" fill="#F79767" stroke="#f36924" stroke-width="2px"/><text text-anchor="middle" pointer-events="none" font-family="sans-serif" dy="1.5625" font-size="25" fill="#FFFFFF"/><text text-anchor="middle" pointer-events="none" font-family="sans-serif" dy="1.5625" font-size="25" fill="#FFFFFF"/><text text-anchor="middle" pointer-events="none" y="0" font-size="10px" fill="#FFFFFF" font-family="sans-serif"> Moreda</text><text text-anchor="middle" pointer-events="none" y="10" font-size="10px" fill="#FFFFFF" font-family="sans-serif"> de Aller</text></g><g class="node" transform="translate(90.19089392720072,-92.85837284348318)"><circle class="outline" cx="0" cy="0" r="25" fill="#F79767" stroke="#f36924" stroke-width="2px"/><text text-anchor="middle" pointer-events="none" font-family="sans-serif" dy="1.5625" font-size="25" fill="#FFFFFF"/><text text-anchor="middle" pointer-events="none" y="5" font-size="10px" fill="#FFFFFF" font-family="sans-serif"> Llanes</text></g><g class="node" transform="translate(51.39184597192897,-216.57605238131734)"><circle class="outline" cx="0" cy="0" r="25" fill="#F79767" stroke="#f36924" stroke-width="2px"/><text text-anchor="middle" pointer-events="none" font-family="sans-serif" dy="1.5625" font-size="25" fill="#FFFFFF"/><text text-anchor="middle" pointer-events="none" y="5" font-size="10px" fill="#FFFFFF" font-family="sans-serif"> Colombr…</text></g><g class="node" transform="translate(-360.66134854734315,37.10483957405309)"><circle class="outline" cx="0" cy="0" r="25" fill="#F79767" stroke="#f36924" stroke-width="2px"/><text text-anchor="middle" pointer-events="none" font-family="sans-serif" dy="1.5625" font-size="25" fill="#FFFFFF"/><text text-anchor="middle" pointer-events="none" y="5" font-size="10px" fill="#FFFFFF" font-family="sans-serif"> Vegadeo</text></g><g class="node" transform="translate(-256.2425489362794,5.523520686472029)"><circle class="outline" cx="0" cy="0" r="25" fill="#F79767" stroke="#f36924" stroke-width="2px"/><text text-anchor="middle" pointer-events="none" font-family="sans-serif" dy="1.5625" font-size="25" fill="#FFFFFF"/><text text-anchor="middle" pointer-events="none" y="5" font-size="10px" fill="#FFFFFF" font-family="sans-serif"> Navia</text></g><g class="node" transform="translate(226.50122340157128,93.40852850706938)"><circle class="outline" cx="0" cy="0" r="25" fill="#57C7E3" stroke="#23b3d7" stroke-width="2px"/><text text-anchor="middle" pointer-events="none" font-family="sans-serif" dy="1.5625" font-size="25" fill="#FFFFFF"/><text text-anchor="middle" pointer-events="none" y="5" font-size="10px" fill="#FFFFFF" font-family="sans-serif"> Langreo</text></g><g class="node" transform="translate(293.0972777189491,235.38564349951739)"><circle class="outline" cx="0" cy="0" r="25" fill="#57C7E3" stroke="#23b3d7" stroke-width="2px"/><text text-anchor="middle" pointer-events="none" font-family="sans-serif" dy="1.5625" font-size="25" fill="#FFFFFF"/><text text-anchor="middle" pointer-events="none" font-family="sans-serif" dy="1.5625" font-size="25" fill="#FFFFFF"/><text text-anchor="middle" pointer-events="none" y="0" font-size="10px" fill="#FFFFFF" font-family="sans-serif"> El</text><text text-anchor="middle" pointer-events="none" y="10" font-size="10px" fill="#FFFFFF" font-family="sans-serif"> Entrego</text></g><g class="node" transform="translate(314.00843169457323,361.8439213797409)"><circle class="outline" cx="0" cy="0" r="25" fill="#57C7E3" stroke="#23b3d7" stroke-width="2px"/><text text-anchor="middle" pointer-events="none" font-family="sans-serif" dy="1.5625" font-size="25" fill="#FFFFFF"/><text text-anchor="middle" pointer-events="none" y="5" font-size="10px" fill="#FFFFFF" font-family="sans-serif"> Laviana</text></g><g class="node" transform="translate(-101.67551351899898,40.93685675476596)"><circle class="outline" cx="0" cy="0" r="25" fill="#57C7E3" stroke="#23b3d7" stroke-width="2px"/><text text-anchor="middle" pointer-events="none" font-family="sans-serif" dy="1.5625" font-size="25" fill="#FFFFFF"/><text text-anchor="middle" pointer-events="none" y="5" font-size="10px" fill="#FFFFFF" font-family="sans-serif"> Candás</text></g><g class="node" transform="translate(-198.70943900129464,108.01129800549343)"><circle class="outline" cx="0" cy="0" r="25" fill="#57C7E3" stroke="#23b3d7" stroke-width="2px"/><text text-anchor="middle" pointer-events="none" font-family="sans-serif" dy="1.5625" font-size="25" fill="#FFFFFF"/><text text-anchor="middle" pointer-events="none" y="5" font-size="10px" fill="#FFFFFF" font-family="sans-serif"> Cudillero</text></g><g class="node" transform="translate(-143.88187415169696,-28.484817994852246)"><circle class="outline" cx="0" cy="0" r="25" fill="#57C7E3" stroke="#23b3d7" stroke-width="2px"/><text text-anchor="middle" pointer-events="none" font-family="sans-serif" dy="1.5625" font-size="25" fill="#FFFFFF"/><text text-anchor="middle" pointer-events="none" y="5" font-size="10px" fill="#FFFFFF" font-family="sans-serif"> Luarca</text></g><g class="node" transform="translate(121.05275076433784,45.31931366403447)"><circle class="outline" cx="0" cy="0" r="25" fill="#57C7E3" stroke="#23b3d7" stroke-width="2px"/><text text-anchor="middle" pointer-events="none" font-family="sans-serif" dy="1.5625" font-size="25" fill="#FFFFFF"/><text text-anchor="middle" pointer-events="none" y="5" font-size="10px" fill="#FFFFFF" font-family="sans-serif"> Oviedo</text></g></g></svg>